<svg xmlns="http://www.w3.org/2000/svg" viewBox="0 0 24 24" fill="none" stroke="#0284c7" stroke-width="2" stroke-linecap="round" stroke-linejoin="round">
    <path d="M10.5 20.5v-2a3 3 0 0 0-6 0v2a2 2 0 0 1-2 2h16a2 2 0 0 1-2-2v-2a3 3 0 0 0-6 0v2"></path>
    <rect x="7" y="9" width="10" height="8" rx="1"></rect>
    <path d="M12 5a2 2 0 0 0 0-4 2 2 0 0 0 0 4z"></path>
    <circle cx="12" cy="13" r="2" fill="#ef4444"></circle>
    <line x1="7" y1="13" x2="10" y2="13"></line>
    <line x1="14" y1="13" x2="17" y2="13"></line>
</svg>  